<svg id="visual" viewBox="0 0 900 480" width="900" height="480" xmlns="http://www.w3.org/2000/svg" xmlns:xlink="http://www.w3.org/1999/xlink" version="1.1"><path d="M0 49L13.7 49C27.3 49 54.7 49 82 45C109.3 41 136.7 33 163.8 33C191 33 218 41 245.2 49C272.3 57 299.7 65 327 60.2C354.3 55.3 381.7 37.7 409 32.8C436.3 28 463.7 36 491 40.8C518.3 45.7 545.7 47.3 573 46.5C600.3 45.7 627.7 42.3 654.8 38.3C682 34.3 709 29.7 736.2 31.3C763.3 33 790.7 41 818 42.7C845.3 44.3 872.7 39.7 886.3 37.3L900 35L900 0L886.3 0C872.7 0 845.3 0 818 0C790.7 0 763.3 0 736.2 0C709 0 682 0 654.8 0C627.7 0 600.3 0 573 0C545.7 0 518.3 0 491 0C463.7 0 436.3 0 409 0C381.7 0 354.3 0 327 0C299.7 0 272.3 0 245.2 0C218 0 191 0 163.8 0C136.7 0 109.3 0 82 0C54.7 0 27.3 0 13.7 0L0 0Z" fill="#75dcdf"></path><path d="M0 135L13.7 128.7C27.3 122.3 54.7 109.7 82 99.3C109.3 89 136.7 81 163.8 82.7C191 84.3 218 95.7 245.2 106.8C272.3 118 299.7 129 327 132.2C354.3 135.3 381.7 130.7 409 121.2C436.3 111.7 463.7 97.3 491 97.3C518.3 97.3 545.7 111.7 573 115.7C600.3 119.7 627.7 113.3 654.8 106.2C682 99 709 91 736.2 95.7C763.3 100.3 790.7 117.7 818 126.3C845.3 135 872.7 135 886.3 135L900 135L900 33L886.3 35.3C872.7 37.7 845.3 42.3 818 40.7C790.7 39 763.3 31 736.2 29.3C709 27.7 682 32.3 654.8 36.3C627.7 40.3 600.3 43.7 573 44.5C545.7 45.3 518.3 43.7 491 38.8C463.7 34 436.3 26 409 30.8C381.7 35.7 354.3 53.3 327 58.2C299.7 63 272.3 55 245.2 47C218 39 191 31 163.8 31C136.7 31 109.3 39 82 43C54.7 47 27.3 47 13.7 47L0 47Z" fill="#96e3e5"></path><path d="M0 174L13.7 172.3C27.3 170.7 54.7 167.3 82 154.5C109.3 141.7 136.7 119.3 163.8 115.3C191 111.3 218 125.7 245.2 145.7C272.3 165.7 299.7 191.3 327 192.2C354.3 193 381.7 169 409 155.3C436.3 141.7 463.7 138.3 491 140C518.3 141.7 545.7 148.3 573 153.2C600.3 158 627.7 161 654.8 157.7C682 154.3 709 144.7 736.2 153.5C763.3 162.3 790.7 189.7 818 197.7C845.3 205.7 872.7 194.3 886.3 188.7L900 183L900 133L886.3 133C872.7 133 845.3 133 818 124.3C790.7 115.7 763.3 98.3 736.2 93.7C709 89 682 97 654.8 104.2C627.7 111.3 600.3 117.7 573 113.7C545.7 109.7 518.3 95.3 491 95.3C463.7 95.3 436.3 109.7 409 119.2C381.7 128.7 354.3 133.3 327 130.2C299.7 127 272.3 116 245.2 104.8C218 93.7 191 82.3 163.8 80.7C136.7 79 109.3 87 82 97.3C54.7 107.7 27.3 120.3 13.7 126.7L0 133Z" fill="#b2eaec"></path><path d="M0 327L13.7 309.5C27.3 292 54.7 257 82 259.5C109.3 262 136.7 302 163.8 297.2C191 292.3 218 242.7 245.2 247.5C272.3 252.3 299.7 311.7 327 314.8C354.3 318 381.7 265 409 266.5C436.3 268 463.7 324 491 343.2C518.3 362.3 545.7 344.7 573 319.8C600.3 295 627.7 263 654.8 244.7C682 226.3 709 221.7 736.2 226.5C763.3 231.3 790.7 245.7 818 254.5C845.3 263.3 872.7 266.7 886.3 268.3L900 270L900 181L886.3 186.7C872.7 192.3 845.3 203.7 818 195.7C790.7 187.7 763.3 160.3 736.2 151.5C709 142.7 682 152.3 654.8 155.7C627.7 159 600.3 156 573 151.2C545.7 146.3 518.3 139.7 491 138C463.7 136.3 436.3 139.7 409 153.3C381.7 167 354.3 191 327 190.2C299.7 189.3 272.3 163.7 245.2 143.7C218 123.7 191 109.3 163.8 113.3C136.7 117.3 109.3 139.7 82 152.5C54.7 165.3 27.3 168.7 13.7 170.3L0 172Z" fill="#cdf1f2"></path><path d="M0 428L13.7 413.7C27.3 399.3 54.7 370.7 82 365.2C109.3 359.7 136.7 377.3 163.8 366.8C191 356.3 218 317.7 245.2 320C272.3 322.3 299.7 365.7 327 371.3C354.3 377 381.7 345 409 345.8C436.3 346.7 463.7 380.3 491 396.3C518.3 412.3 545.7 410.7 573 399.5C600.3 388.3 627.7 367.7 654.8 345.3C682 323 709 299 736.2 298.2C763.3 297.3 790.7 319.7 818 332.3C845.3 345 872.7 348 886.3 349.5L900 351L900 268L886.3 266.3C872.7 264.7 845.3 261.3 818 252.5C790.7 243.7 763.3 229.3 736.2 224.5C709 219.7 682 224.3 654.8 242.7C627.7 261 600.3 293 573 317.8C545.7 342.7 518.3 360.3 491 341.2C463.7 322 436.3 266 409 264.5C381.7 263 354.3 316 327 312.8C299.7 309.7 272.3 250.3 245.2 245.5C218 240.7 191 290.3 163.8 295.2C136.7 300 109.3 260 82 257.5C54.7 255 27.3 290 13.7 307.5L0 325Z" fill="#e6f8f9"></path><path d="M0 481L13.7 481C27.3 481 54.7 481 82 481C109.3 481 136.7 481 163.8 481C191 481 218 481 245.2 481C272.3 481 299.7 481 327 481C354.3 481 381.7 481 409 481C436.3 481 463.7 481 491 481C518.3 481 545.7 481 573 481C600.3 481 627.7 481 654.8 481C682 481 709 481 736.2 481C763.3 481 790.7 481 818 481C845.3 481 872.7 481 886.3 481L900 481L900 349L886.3 347.5C872.7 346 845.3 343 818 330.3C790.7 317.7 763.3 295.3 736.2 296.2C709 297 682 321 654.8 343.3C627.7 365.7 600.3 386.3 573 397.5C545.7 408.7 518.3 410.3 491 394.3C463.7 378.3 436.3 344.7 409 343.8C381.7 343 354.3 375 327 369.3C299.7 363.7 272.3 320.3 245.2 318C218 315.7 191 354.3 163.8 364.8C136.7 375.3 109.3 357.7 82 363.2C54.7 368.7 27.3 397.3 13.7 411.7L0 426Z" fill="#ffffff"></path></svg>